HIERARCHY
ROOT Hips
{
	OFFSET 0.000000 0.000000 0.000000
	CHANNELS 6 Xposition Yposition Zposition Xrotation Yrotation Zrotation
	JOINT LeftUpLeg_virtual
	{
		OFFSET 0.000000 0.000000 0.000000
		CHANNELS 3 Xrotation Yrotation Zrotation
		JOINT LeftUpLeg
		{
			OFFSET 11.394100 -6.187798 -0.413800
			CHANNELS 3 Xrotation Yrotation Zrotation
			JOINT LeftLeg
			{
				OFFSET 0.430247 -32.302673 3.732800
				CHANNELS 3 Xrotation Yrotation Zrotation
				JOINT LeftFoot
				{
					OFFSET -0.430247 -48.264931 -6.423300
					CHANNELS 3 Xrotation Yrotation Zrotation
					JOINT LeftToeBase
					{
						OFFSET 4.230900 -16.068199 23.438400
						CHANNELS 3 Xrotation Yrotation Zrotation
						JOINT LeftToe_End
						{
							OFFSET 4.510700 0.695400 19.974600
							CHANNELS 3 Xrotation Yrotation Zrotation
							End Site
							{
								OFFSET 0 0 0
							}
						}
					}
				}
			}
		}
	}
	JOINT RightUpLeg_virtual
	{
		OFFSET 0.000000 0.000000 0.000000
		CHANNELS 3 Xrotation Yrotation Zrotation
		JOINT RightUpLeg
		{
			OFFSET -11.333700 -6.187798 -0.413800
			CHANNELS 3 Xrotation Yrotation Zrotation
			JOINT RightLeg
			{
				OFFSET -0.430392 -32.302628 3.733000
				CHANNELS 3 Xrotation Yrotation Zrotation
				JOINT RightFoot
				{
					OFFSET 0.430392 -48.264973 -6.423500
					CHANNELS 3 Xrotation Yrotation Zrotation
					JOINT RightToeBase
					{
						OFFSET -4.230900 -16.068199 23.438400
						CHANNELS 3 Xrotation Yrotation Zrotation
						JOINT RightToe_End
						{
							OFFSET -4.510700 0.695400 19.974600
							CHANNELS 3 Xrotation Yrotation Zrotation
							End Site
							{
								OFFSET 0 0 0
							}
						}
					}
				}
			}
		}
	}
	JOINT Spine_virtual
	{
		OFFSET 0.000000 0.000000 0.000000
		CHANNELS 3 Xrotation Yrotation Zrotation
		JOINT Spine
		{
			OFFSET -0.002400 12.777504 0.315300
			CHANNELS 3 Xrotation Yrotation Zrotation
			JOINT Spine1
			{
				OFFSET -0.002067 5.816869 0.032633
				CHANNELS 3 Xrotation Yrotation Zrotation
				JOINT Spine1_split
				{
					OFFSET -0.002067 5.816869 0.032633
					CHANNELS 3 Xrotation Yrotation Zrotation
					JOINT Spine2
					{
						OFFSET -0.002067 5.816869 0.032633
						CHANNELS 3 Xrotation Yrotation Zrotation
						JOINT Neck_virtual
						{
							OFFSET 0.000000 0.000000 0.000000
							CHANNELS 3 Xrotation Yrotation Zrotation
							JOINT Neck
							{
								OFFSET -0.003700 21.199493 -0.826900
								CHANNELS 3 Xrotation Yrotation Zrotation
								JOINT Head
								{
									OFFSET 0.000000 20.442200 4.834800
									CHANNELS 3 Xrotation Yrotation Zrotation
									JOINT HeadTop_End
									{
										OFFSET 0.000000 34.668396 4.968400
										CHANNELS 3 Xrotation Yrotation Zrotation
										End Site
										{
											OFFSET 0 0 0
										}
									}
								}
							}
						}
						JOINT LeftShoulder_virtual
						{
							OFFSET 0.000000 0.000000 0.000000
							CHANNELS 3 Xrotation Yrotation Zrotation
							JOINT LeftShoulder
							{
								OFFSET 3.288150 8.794197 -1.372250
								CHANNELS 3 Xrotation Yrotation Zrotation
								JOINT LeftShoulder_split
								{
									OFFSET 3.288150 8.794197 -1.372250
									CHANNELS 3 Xrotation Yrotation Zrotation
									JOINT LeftArm
									{
										OFFSET 11.953299 -2.279007 -0.146200
										CHANNELS 3 Xrotation Yrotation Zrotation
										JOINT LeftForeArm
										{
											OFFSET 18.448900 0.000000 0.000000
											CHANNELS 3 Xrotation Yrotation Zrotation
											JOINT LeftHand
											{
												OFFSET 29.527798 0.000000 0.000000
												CHANNELS 3 Xrotation Yrotation Zrotation
												End Site
												{
													OFFSET 0 0 0
												}
											}
										}
									}
								}
							}
						}
						JOINT RightShoulder_virtual
						{
							OFFSET 0.000000 0.000000 0.000000
							CHANNELS 3 Xrotation Yrotation Zrotation
							JOINT RightShoulder
							{
								OFFSET -3.249400 8.794197 -1.372250
								CHANNELS 3 Xrotation Yrotation Zrotation
								JOINT RightShoulder_split
								{
									OFFSET -3.249400 8.794197 -1.372250
									CHANNELS 3 Xrotation Yrotation Zrotation
									JOINT RightArm
									{
										OFFSET -11.953299 -2.279007 -0.146200
										CHANNELS 3 Xrotation Yrotation Zrotation
										JOINT RightForeArm
										{
											OFFSET -18.448900 0.000000 0.000000
											CHANNELS 3 Xrotation Yrotation Zrotation
											JOINT RightHand
											{
												OFFSET -29.527802 0.000000 0.000000
												CHANNELS 3 Xrotation Yrotation Zrotation
												End Site
												{
													OFFSET 0 0 0
												}
											}
										}
									}
								}
							}
						}
					}
				}
			}
		}
	}
}
MOTION
Frames: 9
Frame Time: 0.03333333
3.304278 161.535782 9.377823 0.000000 0.000000 0.000000 7.384868 -16.386949 7.353239 -95.101621 0.433187 15.222154 64.579418 -1.426272 -5.630251 9.568654 -16.114739 4.954218 0.467852 -1.127069 0.053857 0.000000 0.000000 0.000000 6.570884 -6.874270 6.424607 -92.220333 4.445841 -2.984742 118.025983 -2.074022 -3.957180 17.810087 6.499939 11.034595 17.175923 0.292014 -1.990914 0.000000 0.000000 0.000000 0.381684 -6.969684 8.937091 30.196195 -5.576275 -10.338556 1.123625 -3.333752 -2.274599 3.006710 -0.349734 0.434960 0.000000 0.000000 0.000000 4.149822 -1.819016 -1.304234 -22.828444 4.540592 6.524885 18.547732 3.698337 -18.078218 0.000000 0.000000 0.000000 3.071291 -1.998367 -1.187670 12.918678 -38.504751 33.846603 -4.770836 -0.620407 0.816996 -66.585540 14.506345 18.315128 -45.858351 -68.790421 -29.136856 0.000000 0.000000 0.000000 3.524651 -2.223465 -1.195614 0.964490 8.332091 -16.667299 5.952731 1.878076 -3.235499 -84.087019 -9.994269 -15.970063 -66.146496 68.105401 63.252258 0.000000 0.000000 0.000000 
1.771359 160.575211 15.804831 0.000000 0.000000 0.000000 4.996936 -16.037291 7.139357 -95.150409 0.751646 16.513383 59.925027 -0.572321 -6.099512 12.155986 -14.487497 7.434954 -0.025122 -0.667502 -0.703515 0.000000 0.000000 0.000000 5.253375 -9.848803 6.760133 -90.384631 3.434112 -4.678834 116.021746 -1.966730 -3.206344 18.014926 5.432484 11.861675 14.566268 0.311139 -2.345397 0.000000 0.000000 0.000000 -1.215064 -6.933610 7.903646 30.042662 -5.433431 -10.003246 0.699107 -3.119502 -2.535045 2.027239 -2.185663 0.864376 0.000000 0.000000 0.000000 4.098432 -1.721638 -1.593584 -22.740787 3.619634 7.591029 17.948327 4.387617 -18.750148 0.000000 0.000000 0.000000 2.723382 -1.839489 -1.541519 10.995186 -37.500266 31.161611 -3.977315 -2.193975 1.616861 -65.020676 13.057142 16.729795 -54.189085 -70.775588 -37.541547 0.000000 0.000000 0.000000 3.321028 -2.071751 -1.573447 0.549818 8.350539 -16.907764 6.887291 0.645117 -1.263265 -83.299327 -10.142270 -13.463551 -67.836264 67.809968 65.002678 0.000000 0.000000 0.000000 
-0.012761 158.485596 24.863287 0.000000 0.000000 0.000000 2.769821 -16.721252 7.488419 -90.772094 -0.163249 16.552730 49.366073 1.031359 -6.245868 18.508380 -11.410300 8.503548 -0.327338 -0.154355 -0.922399 0.000000 0.000000 0.000000 3.267348 -14.442821 7.428965 -84.037247 1.776279 -6.985654 109.657663 -1.664506 -2.803164 18.619290 3.225135 12.770917 13.473188 0.489785 -1.282293 0.000000 0.000000 0.000000 -3.040441 -8.486309 7.088162 28.347100 -4.878183 -8.870820 0.746398 -2.878946 -3.424859 1.209491 -3.880520 1.756820 0.000000 0.000000 0.000000 4.687978 -1.703358 -2.510361 -22.113304 2.674742 9.964275 18.224374 5.539193 -19.299789 0.000000 0.000000 0.000000 3.121383 -1.781850 -2.539557 7.661813 -34.853246 26.170623 -3.037198 -3.150216 1.717264 -61.443303 9.442099 14.043692 -60.372780 -71.941153 -43.593300 0.000000 0.000000 0.000000 3.526622 -2.089678 -2.598478 0.293568 10.313946 -16.201699 6.796416 -0.092695 0.107060 -81.028085 -11.417670 -11.183938 -72.721598 67.590336 69.735746 0.000000 0.000000 0.000000 
-1.556432 155.197815 35.103821 0.000000 0.000000 0.000000 0.306495 -18.624188 7.912584 -82.757570 -2.409801 15.634373 35.521451 2.909548 -5.602493 27.343206 -7.419728 7.344692 0.042748 0.403670 -1.000067 0.000000 0.000000 0.000000 1.129652 -19.238353 8.035457 -73.414459 -0.633837 -9.266581 99.122055 -1.278738 -2.482464 19.578394 0.260422 13.197683 13.444981 0.724046 0.679820 0.000000 0.000000 0.000000 -5.389489 -11.709195 6.510822 25.448054 -4.033753 -6.988120 1.363549 -2.603595 -4.752247 1.617932 -5.129256 2.264531 0.000000 0.000000 0.000000 5.583391 -1.731867 -3.808220 -20.896293 1.859372 12.938280 19.074396 6.959970 -19.723918 0.000000 0.000000 0.000000 4.120096 -1.766718 -4.019262 3.760011 -30.845278 19.738664 -1.701464 -2.974097 1.718664 -56.813725 4.202221 10.799484 -61.003131 -71.939186 -43.838972 0.000000 0.000000 0.000000 4.130567 -2.163714 -4.075057 0.146372 13.803329 -14.850855 6.073278 -0.047004 0.990457 -78.164712 -14.086225 -10.028587 -79.690652 67.235583 76.385714 0.000000 0.000000 0.000000 
-2.740738 150.417038 46.187092 0.000000 0.000000 0.000000 -2.229296 -22.335349 8.228109 -72.737137 -5.848235 14.352729 21.778654 4.433653 -4.075371 36.333826 -4.009587 4.362817 0.658066 0.975165 -1.066511 0.000000 0.000000 0.000000 -1.002733 -23.717970 8.311356 -60.693266 -3.820821 -11.311788 85.438467 -0.670128 -2.274350 20.693498 -2.385801 13.486958 12.533322 0.953705 2.495694 0.000000 0.000000 0.000000 -7.499207 -16.379338 6.046279 21.844181 -3.006521 -4.412122 2.429723 -2.173164 -6.235907 1.887375 -5.352555 2.232646 0.000000 0.000000 0.000000 6.611273 -1.611493 -5.245153 -19.359019 1.450366 15.584620 19.953264 8.582174 -20.084226 0.000000 0.000000 0.000000 5.349212 -1.611424 -5.672699 0.156904 -26.166544 13.059738 -0.585020 -2.048922 2.187947 -52.420636 -1.384603 7.886451 -57.562977 -70.872891 -39.705198 0.000000 0.000000 0.000000 5.036662 -2.064884 -5.738511 -0.013388 18.100949 -13.181858 5.285001 0.858035 1.907072 -75.860739 -17.893240 -10.392849 -86.545634 66.594112 82.880056 0.000000 0.000000 0.000000 
-3.470867 143.770172 57.130878 0.000000 0.000000 0.000000 -4.844768 -27.789694 8.102969 -62.373643 -10.073802 13.482970 10.921298 4.856066 -1.929972 43.720608 -2.384873 0.607575 0.290878 1.398682 -0.877962 0.000000 0.000000 0.000000 -2.932581 -28.325119 8.272089 -48.812688 -7.151886 -13.024024 71.103635 0.166534 -2.036178 21.403243 -3.898592 14.088967 9.128852 0.965360 3.281012 0.000000 0.000000 0.000000 -8.984354 -22.831029 5.621043 18.231525 -1.887743 -1.526265 3.728916 -1.337932 -7.629396 1.550992 -4.858970 2.201918 0.000000 0.000000 0.000000 7.661690 -1.154214 -6.569352 -17.768006 1.628634 17.217263 20.261546 10.259166 -20.488969 0.000000 0.000000 0.000000 6.448333 -1.088011 -7.211334 -2.705135 -21.403950 6.964911 -0.119286 -0.700162 2.965184 -49.485994 -5.781152 5.494303 -55.502011 -69.851272 -36.776686 0.000000 0.000000 0.000000 6.010830 -1.601777 -7.304235 -0.326612 22.415912 -11.456626 4.759710 2.225976 2.966729 -75.462293 -21.807006 -12.394213 -90.766971 65.814719 86.781146 0.000000 0.000000 0.000000 
-3.894686 135.243896 67.992134 0.000000 0.000000 0.000000 -6.927524 -33.439247 7.624340 -53.404969 -14.250840 13.346932 4.383129 4.220564 0.076211 48.289793 -2.852623 -2.843240 -1.039102 1.548595 -0.173450 0.000000 0.000000 0.000000 -4.454467 -32.654393 8.117676 -39.678813 -10.039022 -14.637155 58.620529 1.467918 -1.789706 20.553858 -4.105775 15.325263 3.704772 0.703944 2.245091 0.000000 0.000000 0.000000 -9.435805 -30.155091 5.390254 14.942094 -0.687100 1.358265 4.921231 -0.034536 -8.711927 0.954686 -3.807628 1.805495 0.000000 0.000000 0.000000 8.557948 -0.220645 -7.640608 -16.245424 2.302946 17.362740 19.642118 12.008283 -21.066619 0.000000 0.000000 0.000000 7.161405 0.020205 -8.386764 -4.752636 -17.051367 1.835415 0.210548 0.551606 3.321179 -48.121200 -7.555358 3.318103 -58.754401 -69.957427 -39.189375 0.000000 0.000000 0.000000 6.860236 -0.595816 -8.525918 -0.904978 26.070463 -9.790918 4.107238 3.397852 4.093454 -77.408610 -24.670708 -15.769915 -92.124697 65.249986 87.854667 0.000000 0.000000 0.000000 
-4.044476 125.143784 78.139511 0.000000 0.000000 0.000000 -7.923517 -39.177466 7.056667 -46.952199 -17.533960 13.808914 2.318446 3.198010 1.541332 49.927071 -4.880813 -5.502092 -2.211424 1.435424 0.770174 0.000000 0.000000 0.000000 -5.894393 -37.888811 7.762321 -34.516340 -11.999398 -16.323848 50.787108 2.938665 -1.339805 16.560169 -3.844621 16.144803 -1.079560 0.580293 -0.339031 0.000000 0.000000 0.000000 -8.017887 -37.747549 5.881311 12.296882 0.453897 3.825379 5.671089 1.666225 -9.321982 0.352148 -2.753677 1.639644 0.000000 0.000000 0.000000 9.320043 1.179513 -8.375055 -14.909260 3.455482 16.109160 18.145745 13.759059 -21.712012 0.000000 0.000000 0.000000 7.424060 1.657841 -9.052134 -6.085355 -13.578705 -2.026440 0.467544 1.614175 2.914620 -47.670325 -5.180508 1.444319 -69.272755 -71.328239 -49.114975 0.000000 0.000000 0.000000 7.469427 0.919432 -9.258481 -1.786852 28.527492 -7.959207 3.294189 4.576676 4.704195 -80.685803 -25.218295 -19.333281 -91.911206 65.218997 87.398841 0.000000 0.000000 0.000000 
-3.811022 114.252045 87.538406 0.000000 0.000000 0.000000 -7.473049 -45.239434 6.986533 -43.187214 -19.685310 14.685115 4.646395 2.597628 2.171319 49.143781 -7.201139 -7.619441 -2.331197 1.190954 1.314958 0.000000 0.000000 0.000000 -6.826966 -44.279252 7.541974 -33.761557 -12.602755 -18.353482 49.486117 3.742267 -0.563324 8.671130 -4.350351 14.871682 -2.920720 0.742332 -3.226067 0.000000 0.000000 0.000000 -4.961247 -44.851817 7.566849 10.622805 1.398182 5.401260 5.868324 3.509888 -9.386652 0.573981 -2.829218 1.847105 0.000000 0.000000 0.000000 9.753935 2.878411 -8.705341 -13.864475 5.008053 13.883317 16.203577 15.220899 -22.269267 0.000000 0.000000 0.000000 7.367790 3.545624 -9.189366 -6.795502 -11.317360 -4.667734 0.765678 2.377705 2.393492 -47.352305 0.986950 -0.232399 -86.945801 -72.561607 -66.602363 0.000000 0.000000 0.000000 7.787364 2.713297 -9.445919 -2.857005 29.667220 -5.657216 2.215088 5.862208 4.977204 -83.397190 -23.723503 -21.589063 -91.301434 65.802917 86.676016 0.000000 0.000000 0.000000 
